<svg width="26" height="40" viewBox="0 0 26 40" fill="none" xmlns="http://www.w3.org/2000/svg">
<path d="M24.7622 12.6599C25.2156 12.8361 25.7085 12.5041 25.7085 12.0176V5.08864C25.7085 4.81328 25.5439 4.56435 25.2896 4.45877C20.2577 2.36981 14.9132 0.886808 9.34187 0.103863C8.9326 0.0463483 8.56949 0.365943 8.56949 0.779233V8.56949C14.2095 9.27651 19.6366 10.6677 24.7622 12.6599Z" fill="#00BD79"/>
<path d="M24.7463 38.6269C25.2022 38.8163 25.7085 38.484 25.7085 37.9903V31.4028C25.7085 31.1385 25.5567 30.8974 25.3173 30.7854C20.1002 28.3439 14.4751 26.6334 8.56949 25.7873V8.56949C5.98337 8.24741 3.35361 8.06787 0.68558 8.04157C0.306975 8.03784 0 8.34513 0 8.72375V33.0611C0 33.4397 0.306869 33.7463 0.685472 33.7502C3.31991 33.7774 6.04043 33.9606 8.56949 34.2917C14.2276 35.0332 19.6522 36.5116 24.7463 38.6269Z" fill="#00BD79"/>
<path d="M15.8643 17.9102C15.8643 19.2413 14.7852 20.3204 13.4541 20.3204C12.123 20.3204 11.0439 19.2413 11.0439 17.9102C11.0439 16.5791 12.123 15.5001 13.4541 15.5001C14.7852 15.5001 15.8643 16.5791 15.8643 17.9102Z" fill="#00BD79"/>
<path d="M21.5308 22.2055C22.8617 22.2055 23.9406 21.1266 23.9406 19.7957C23.9406 18.4649 22.8617 17.386 21.5308 17.386C20.2 17.386 19.1211 18.4649 19.1211 19.7957C19.1211 21.1266 20.2 22.2055 21.5308 22.2055Z" fill="#00BD79"/>
</svg>
